<?xml version="1.0" encoding="UTF-8" standalone="yes"?>
<svg version="1.1" width="64" height="64" color-interpolation="linearRGB"
     xmlns:svg="http://www.w3.org/2000/svg" xmlns="http://www.w3.org/2000/svg">
 <g>
  <radialGradient id="gradient0" gradientUnits="userSpaceOnUse" cx="0" cy="0" r="64" gradientTransform="matrix(0.5747,0.2724,-0.2344,0.4947,35.1097,36.9506)">
   <stop offset="0" stop-color="#676767" stop-opacity="0.996"/>
   <stop offset="1" stop-color="#696969" stop-opacity="0"/>
  </radialGradient>
  <path style="fill:url(#gradient0)"
        d="M36.96 27.6C53.7 27.6 66.85 35.2 66.85 44.87C66.85 54.54 53.7 62.14 36.96 62.14C20.22 62.14 7.07 54.54 7.07 44.87C7.07 35.2 20.22 27.6 36.96 27.6z"
        transform="matrix(1,0,0,1,2,3)"
  />
  <path style="fill:#010101"
        d="M2 12L26 2L42 9V22C42 22 48 25 56 29V46L32 60L2 44V12z"
  />
  <path style="fill:#dbecff"
        d="M4 42V14L26 5L40 11L18 22V35L40 24L54 31L32 43V57L4 42z"
  />
  <path style="fill:#a6caee"
        d="M18 23V34L40 23V12L18 23z"
  />
  <path style="fill:#a6caee"
        d="M32 44V57L54 44V32L32 44z"
  />
  <path style="fill:#010101"
        d="M4 14.98L18 22.03L18.06 34.9L32 43.09C32 43.09 32 57.53 32.12 57.65C32.25 57.78 32.81 57.62 32.81 57.62L32.68 42.03L18.65 34.31V21.09L4.01 13.68L4 14.98z"
  />
 </g>
</svg>
